<?xml version="1.0" encoding="UTF-8" standalone="no"?>
<!-- Created with Inkscape (http://www.inkscape.org/) -->

<svg
   xmlns:osb="http://www.openswatchbook.org/uri/2009/osb"
   xmlns:dc="http://purl.org/dc/elements/1.1/"
   xmlns:cc="http://creativecommons.org/ns#"
   xmlns:rdf="http://www.w3.org/1999/02/22-rdf-syntax-ns#"
   xmlns:svg="http://www.w3.org/2000/svg"
   xmlns="http://www.w3.org/2000/svg"
   xmlns:xlink="http://www.w3.org/1999/xlink"
   xmlns:sodipodi="http://sodipodi.sourceforge.net/DTD/sodipodi-0.dtd"
   xmlns:inkscape="http://www.inkscape.org/namespaces/inkscape"
   inkscape:version="0.48.5 r10040"
   version="1.1"
   id="svg2"
   height="640"
   width="640"
   sodipodi:docname="LogoInvTemp_final.svg">
  <defs
     id="defs4">
    <linearGradient
       id="linearGradient6013"
       osb:paint="gradient">
      <stop
         style="stop-color:#000000;stop-opacity:1;"
         offset="0"
         id="stop6015" />
      <stop
         style="stop-color:#000000;stop-opacity:0;"
         offset="1"
         id="stop6017" />
    </linearGradient>
    <linearGradient
       id="linearGradient5645"
       osb:paint="solid">
      <stop
         style="stop-color:#110707;stop-opacity:1;"
         offset="0"
         id="stop5647" />
    </linearGradient>
    <linearGradient
       id="linearGradient5639"
       osb:paint="solid">
      <stop
         style="stop-color:#23718c;stop-opacity:1;"
         offset="0"
         id="stop5641" />
    </linearGradient>
    <linearGradient
       id="linearGradient5629"
       osb:paint="gradient">
      <stop
         style="stop-color:#110707;stop-opacity:1;"
         offset="0"
         id="stop5631" />
      <stop
         style="stop-color:#110707;stop-opacity:0;"
         offset="1"
         id="stop5633" />
    </linearGradient>
    <linearGradient
       id="linearGradient5351"
       osb:paint="solid">
      <stop
         style="stop-color:#00ffff;stop-opacity:1;"
         offset="0"
         id="stop5353" />
    </linearGradient>
    <linearGradient
       inkscape:collect="always"
       xlink:href="#linearGradient6013"
       id="linearGradient6023"
       x1="846.23157"
       y1="424.58749"
       x2="910.58313"
       y2="424.58749"
       gradientUnits="userSpaceOnUse" />
    <filter
       inkscape:collect="always"
       id="filter6218"
       x="-0.19351831"
       width="1.3870366"
       y="-0.086962596"
       height="1.1739252"
       color-interpolation-filters="sRGB">
      <feGaussianBlur
         inkscape:collect="always"
         stdDeviation="5.1082031"
         id="feGaussianBlur6220" />
    </filter>
    <filter
       color-interpolation-filters="sRGB"
       inkscape:collect="always"
       id="filter6218-6"
       x="-0.19351831"
       width="1.3870366"
       y="-0.086962596"
       height="1.1739252">
      <feGaussianBlur
         inkscape:collect="always"
         stdDeviation="5.1082031"
         id="feGaussianBlur6220-2" />
    </filter>
    <radialGradient
       inkscape:collect="always"
       xlink:href="#linearGradient6003-5"
       id="radialGradient6222-7"
       gradientUnits="userSpaceOnUse"
       gradientTransform="matrix(-1.11421,1.0688981,-1.1383372,-1.125882,1347.463,-653.17682)"
       cx="626.97394"
       cy="16.858307"
       fx="626.97394"
       fy="16.858307"
       r="186.53555" />
    <linearGradient
       inkscape:collect="always"
       id="linearGradient6003-5">
      <stop
         style="stop-color:#000000;stop-opacity:1;"
         offset="0"
         id="stop6005-7" />
      <stop
         style="stop-color:#000000;stop-opacity:0.00021397"
         offset="1"
         id="stop6007-8" />
    </linearGradient>
    <radialGradient
       inkscape:collect="always"
       xlink:href="#linearGradient6003-7"
       id="radialGradient6222-6"
       gradientUnits="userSpaceOnUse"
       gradientTransform="matrix(-1.11421,1.0688981,-1.1383372,-1.125882,1347.463,-653.17682)"
       cx="626.97394"
       cy="16.858307"
       fx="626.97394"
       fy="16.858307"
       r="186.53555" />
    <linearGradient
       inkscape:collect="always"
       id="linearGradient6003-7">
      <stop
         style="stop-color:#000000;stop-opacity:1;"
         offset="0"
         id="stop6005-8" />
      <stop
         style="stop-color:#000000;stop-opacity:0.00021397"
         offset="1"
         id="stop6007-7" />
    </linearGradient>
    <radialGradient
       r="186.53555"
       fy="16.858307"
       fx="626.97394"
       cy="16.858307"
       cx="626.97394"
       gradientTransform="matrix(-1.11421,1.0688981,-1.1383372,-1.125882,1347.463,-653.17682)"
       gradientUnits="userSpaceOnUse"
       id="radialGradient6245-0"
       xlink:href="#linearGradient6003-5-7"
       inkscape:collect="always" />
    <linearGradient
       inkscape:collect="always"
       id="linearGradient6003-5-7">
      <stop
         style="stop-color:#000000;stop-opacity:1;"
         offset="0"
         id="stop6005-7-2" />
      <stop
         style="stop-color:#000000;stop-opacity:0.00021397"
         offset="1"
         id="stop6007-8-55" />
    </linearGradient>
    <filter
       color-interpolation-filters="sRGB"
       inkscape:collect="always"
       id="filter6218-6-8"
       x="-0.19351831"
       width="1.3870366"
       y="-0.086962596"
       height="1.1739252">
      <feGaussianBlur
         inkscape:collect="always"
         stdDeviation="5.1082031"
         id="feGaussianBlur6220-2-6" />
    </filter>
  </defs>
  <sodipodi:namedview
     id="base"
     pagecolor="#ffffff"
     bordercolor="#666666"
     borderopacity="1.0"
     inkscape:pageopacity="0.0"
     inkscape:pageshadow="2"
     inkscape:zoom="0.1767767"
     inkscape:cx="389.23296"
     inkscape:cy="173.04038"
     inkscape:document-units="px"
     inkscape:current-layer="layer1"
     showgrid="false"
     inkscape:window-width="1920"
     inkscape:window-height="1138"
     inkscape:window-x="-8"
     inkscape:window-y="-8"
     inkscape:window-maximized="1"
     fit-margin-top="0"
     fit-margin-left="0"
     fit-margin-right="0"
     fit-margin-bottom="0" />
  <metadata
     id="metadata7">
    <rdf:RDF>
      <cc:Work
         rdf:about="">
        <dc:format>image/svg+xml</dc:format>
        <dc:type
           rdf:resource="http://purl.org/dc/dcmitype/StillImage" />
      </cc:Work>
    </rdf:RDF>
  </metadata>
  <g
     inkscape:label="Layer 1"
     inkscape:groupmode="layer"
     id="layer1"
     transform="translate(2366.6696,212.42773)">
    <text
       xml:space="preserve"
       style="font-size:10px;font-style:normal;font-weight:normal;line-height:125%;letter-spacing:0px;word-spacing:0px;fill:#000000;fill-opacity:1;stroke:none;font-family:Sans"
       x="291.42856"
       y="285.21933"
       id="text2985"
       sodipodi:linespacing="125%"><tspan
         sodipodi:role="line"
         id="tspan2987"
         x="291.42856"
         y="285.21933" /></text>
    <g
       id="g4249"
       transform="translate(-2061.2834,85.573593)">
      <path
         transform="matrix(1.2322503,0,0,1.2322503,402.35671,-265.62531)"
         d="m -55.154327,233.4136 c 0,143.32241 -116.185773,259.50818 -259.508183,259.50818 -143.32241,0 -259.50817,-116.18577 -259.50817,-259.50818 0,-143.322405 116.18576,-259.508174 259.50817,-259.508174 143.32241,0 259.508183,116.185769 259.508183,259.508174 z"
         sodipodi:ry="259.50818"
         sodipodi:rx="259.50818"
         sodipodi:cy="233.4136"
         sodipodi:cx="-314.66251"
         id="path4213-2"
         style="fill:#ffffff;fill-opacity:1;fill-rule:nonzero;stroke:none"
         sodipodi:type="arc" />
      <path
         inkscape:connector-curvature="0"
         id="path4213"
         d="m 14.613747,-298.00132 c -176.731117,0 -319.999997,143.26888 -319.999997,319.999998 0,125.714302 72.50548,234.483852 177.96875,286.812502 l 0,-316.6250022 c -5e-5,-72.4533998 14.31011,-123.4087578 42.968747,-152.8749978 28.65845,-29.46542 67.51984,-44.21829 116.5625,-44.21875 37.13481,4.6e-4 67.67769,9.49802 91.593753,28.46875 23.91546,18.97158 35.87466,43.08009 35.875,72.34375 -3.4e-4,50.455548 -27.78079,86.799958 -83.281253,108.9999978 l 0.3125,2.40625 C 109.7121,13.567868 135.71192,26.896238 154.5825,47.279928 c 18.86991,20.3841 28.28089,45.91712 28.28125,76.593752 -3.6e-4,39.35518 -15.32356,71.59209 -46,96.71875 -30.67707,25.12672 -67.401703,37.68749 -110.187503,37.6875 -24.8241602,-10e-6 -48.96392,-4.43238 -72.375,-13.3125 -7e-5,36.3224 0.44883,66.82283 1.3125,91.59375 19.12509,3.56511 38.8412098,5.4375 59,5.4375 176.731123,0 320.000003,-143.26888 320.000003,-320.000002 0,-176.731118 -143.26888,-319.999998 -320.000003,-319.999998 z m -0.8125,124.90625 c -20.1869802,0.58693 -35.07621,10.29355 -44.65625,29.0625 -9.88937,19.37519 -14.84388,53.060698 -14.84375,101.093748 l 0,259.156252 c 18.36556,7.06376 35.7460798,10.59377 52.0937498,10.59375 24.6219502,2e-5 44.5435402,-8.89597 59.7812502,-26.65625 15.23722,-17.76018 22.84348,-42.47027 22.84375,-74.15625 -2.7e-4,-31.685742 -8.37412,-56.126292 -25.125,-73.281252 -16.75137,-17.15457 -41.27135,-25.71853 -73.5625002,-25.71875 -3.8347598,2.2e-4 -7.2540998,0.1109 -10.2812498,0.3125 l -3.625,-23.9375002 c 31.6857098,-3.02706004 55.92899,-11.53568 72.78125,-25.5624998 16.85181,-14.02627 25.281,-36.08462 25.28125,-66.15625 -2.5e-4,-24.419968 -5.33499,-44.642348 -16.03125,-60.687498 -10.69674,-16.04435 -24.92747,-24.06208 -42.6875,-24.0625 -0.66223,1e-5 -1.31756,-0.0189 -1.96875,0 z"
         style="fill:#6d1e5c;fill-opacity:1;fill-rule:nonzero;stroke:none" />
    </g>
  </g>
</svg>
